<svg xmlns="http://www.w3.org/2000/svg" viewBox="0 0 760 460" font-family="-apple-system,Segoe UI,Helvetica,Arial,sans-serif">
<rect width="760" height="460" fill="#ffffff"/>
<text x="78" y="34" font-size="21" font-weight="700" fill="#1a1a1a">GPU attention kernel latency — Apple M4, per head (bit-exact)</text>
<text x="78" y="56" font-size="13.5" fill="#666">int4-SIMD vs f16:  1.41× @512   1.24× @2048   1.21× @4096   ·   3.8× smaller KV reads</text>
<line x1="78" y1="390.0" x2="734" y2="390.0" stroke="#eee"/>
<text x="68" y="394.0" font-size="11.5" fill="#999" text-anchor="end">0.0</text>
<line x1="78" y1="327.6" x2="734" y2="327.6" stroke="#eee"/>
<text x="68" y="331.6" font-size="11.5" fill="#999" text-anchor="end">6.0</text>
<line x1="78" y1="265.2" x2="734" y2="265.2" stroke="#eee"/>
<text x="68" y="269.2" font-size="11.5" fill="#999" text-anchor="end">12.0</text>
<line x1="78" y1="202.8" x2="734" y2="202.8" stroke="#eee"/>
<text x="68" y="206.8" font-size="11.5" fill="#999" text-anchor="end">18.0</text>
<line x1="78" y1="140.4" x2="734" y2="140.4" stroke="#eee"/>
<text x="68" y="144.4" font-size="11.5" fill="#999" text-anchor="end">24.0</text>
<line x1="78" y1="78.0" x2="734" y2="78.0" stroke="#eee"/>
<text x="68" y="82.0" font-size="11.5" fill="#999" text-anchor="end">30.0</text>
<text x="20" y="234" font-size="12.5" fill="#666" transform="rotate(-90 20 234)" text-anchor="middle">microseconds</text>
<rect x="117.4" y="354.4" width="43.6" height="35.6" rx="2.5" fill="#5B8DEF"/>
<text x="139.2" y="349.4" font-size="11" fill="#444" text-anchor="middle">3.4</text>
<rect x="164.0" y="357.7" width="43.6" height="32.3" rx="2.5" fill="#F5A623"/>
<text x="185.8" y="352.7" font-size="11" fill="#444" text-anchor="middle">3.1</text>
<rect x="210.7" y="364.7" width="43.6" height="25.3" rx="2.5" fill="#2BB673"/>
<text x="232.5" y="359.7" font-size="11" fill="#444" text-anchor="middle">2.4</text>
<text x="187.3" y="412" font-size="13" fill="#333" text-anchor="middle">T=512</text>
<rect x="336.0" y="246.8" width="43.6" height="143.2" rx="2.5" fill="#5B8DEF"/>
<text x="357.9" y="241.8" font-size="11" fill="#444" text-anchor="middle">13.8</text>
<rect x="382.7" y="260.0" width="43.6" height="130.0" rx="2.5" fill="#F5A623"/>
<text x="404.5" y="255.0" font-size="11" fill="#444" text-anchor="middle">12.5</text>
<rect x="429.3" y="274.4" width="43.6" height="115.6" rx="2.5" fill="#2BB673"/>
<text x="451.1" y="269.4" font-size="11" fill="#444" text-anchor="middle">11.1</text>
<text x="406.0" y="412" font-size="13" fill="#333" text-anchor="middle">T=2048</text>
<rect x="554.7" y="100.8" width="43.6" height="289.2" rx="2.5" fill="#5B8DEF"/>
<text x="576.5" y="95.8" font-size="11" fill="#444" text-anchor="middle">27.8</text>
<rect x="601.3" y="132.9" width="43.6" height="257.1" rx="2.5" fill="#F5A623"/>
<text x="623.2" y="127.9" font-size="11" fill="#444" text-anchor="middle">24.7</text>
<rect x="648.0" y="151.7" width="43.6" height="238.3" rx="2.5" fill="#2BB673"/>
<text x="669.8" y="146.7" font-size="11" fill="#444" text-anchor="middle">22.9</text>
<text x="624.7" y="412" font-size="13" fill="#333" text-anchor="middle">T=4096</text>
<rect x="78" y="428" width="13" height="13" rx="2.5" fill="#5B8DEF"/>
<text x="97" y="439" font-size="12.5" fill="#333">f16</text>
<rect x="126.8" y="428" width="13" height="13" rx="2.5" fill="#F5A623"/>
<text x="145.8" y="439" font-size="12.5" fill="#333">int4 scalar</text>
<rect x="236.39999999999998" y="428" width="13" height="13" rx="2.5" fill="#2BB673"/>
<text x="255.39999999999998" y="439" font-size="12.5" fill="#333">int4 SIMD</text>
</svg>