<svg xmlns="http://www.w3.org/2000/svg" viewBox="0 0 760 460" font-family="-apple-system,Segoe UI,Helvetica,Arial,sans-serif">
<rect width="760" height="460" fill="#ffffff"/>
<text x="78" y="34" font-size="21" font-weight="700" fill="#1a1a1a">KV-cache memory — Qwen3-1.7B (int4 = ¼ of f16, exact)</text>
<text x="78" y="56" font-size="13.5" fill="#666">705 MB reclaimed at 8K context; the f16 cache there ≈ the whole 4-bit model</text>
<line x1="78" y1="390.0" x2="734" y2="390.0" stroke="#eee"/>
<text x="68" y="394.0" font-size="11.5" fill="#999" text-anchor="end">0</text>
<line x1="78" y1="327.6" x2="734" y2="327.6" stroke="#eee"/>
<text x="68" y="331.6" font-size="11.5" fill="#999" text-anchor="end">200</text>
<line x1="78" y1="265.2" x2="734" y2="265.2" stroke="#eee"/>
<text x="68" y="269.2" font-size="11.5" fill="#999" text-anchor="end">400</text>
<line x1="78" y1="202.8" x2="734" y2="202.8" stroke="#eee"/>
<text x="68" y="206.8" font-size="11.5" fill="#999" text-anchor="end">600</text>
<line x1="78" y1="140.4" x2="734" y2="140.4" stroke="#eee"/>
<text x="68" y="144.4" font-size="11.5" fill="#999" text-anchor="end">800</text>
<line x1="78" y1="78.0" x2="734" y2="78.0" stroke="#eee"/>
<text x="68" y="82.0" font-size="11.5" fill="#999" text-anchor="end">1000</text>
<text x="20" y="234" font-size="12.5" fill="#666" transform="rotate(-90 20 234)" text-anchor="middle">megabytes</text>
<rect x="107.5" y="354.1" width="49.5" height="35.9" rx="2.5" fill="#5B8DEF"/>
<text x="132.3" y="349.1" font-size="11" fill="#444" text-anchor="middle">115</text>
<rect x="160.0" y="381.0" width="49.5" height="9.0" rx="2.5" fill="#2BB673"/>
<text x="184.7" y="376.0" font-size="11" fill="#444" text-anchor="middle">29</text>
<text x="160.0" y="412" font-size="13" fill="#333" text-anchor="middle">1K</text>
<rect x="271.5" y="316.7" width="49.5" height="73.3" rx="2.5" fill="#5B8DEF"/>
<text x="296.3" y="311.7" font-size="11" fill="#444" text-anchor="middle">235</text>
<rect x="324.0" y="371.6" width="49.5" height="18.4" rx="2.5" fill="#2BB673"/>
<text x="348.7" y="366.6" font-size="11" fill="#444" text-anchor="middle">59</text>
<text x="324.0" y="412" font-size="13" fill="#333" text-anchor="middle">2K</text>
<rect x="435.5" y="243.4" width="49.5" height="146.6" rx="2.5" fill="#5B8DEF"/>
<text x="460.3" y="238.4" font-size="11" fill="#444" text-anchor="middle">470</text>
<rect x="488.0" y="353.2" width="49.5" height="36.8" rx="2.5" fill="#2BB673"/>
<text x="512.7" y="348.2" font-size="11" fill="#444" text-anchor="middle">118</text>
<text x="488.0" y="412" font-size="13" fill="#333" text-anchor="middle">4K</text>
<rect x="599.5" y="96.7" width="49.5" height="293.3" rx="2.5" fill="#5B8DEF"/>
<text x="624.3" y="91.7" font-size="11" fill="#444" text-anchor="middle">940</text>
<rect x="652.0" y="316.7" width="49.5" height="73.3" rx="2.5" fill="#2BB673"/>
<text x="676.7" y="311.7" font-size="11" fill="#444" text-anchor="middle">235</text>
<text x="652.0" y="412" font-size="13" fill="#333" text-anchor="middle">8K</text>
<rect x="78" y="428" width="13" height="13" rx="2.5" fill="#5B8DEF"/>
<text x="97" y="439" font-size="12.5" fill="#333">f16</text>
<rect x="126.8" y="428" width="13" height="13" rx="2.5" fill="#2BB673"/>
<text x="145.8" y="439" font-size="12.5" fill="#333">int4</text>
</svg>